<?xml version="1.0" standalone="no"?>
<!DOCTYPE svg PUBLIC "-//W3C//DTD SVG 20010904//EN"
 "http://www.w3.org/TR/2001/REC-SVG-20010904/DTD/svg10.dtd">
<svg version="1.0" xmlns="http://www.w3.org/2000/svg"
 width="238.000000pt" height="65.000000pt" viewBox="0 0 238.000000 65.000000"
 preserveAspectRatio="xMidYMid meet">

<g transform="translate(0.000000,65.000000) scale(0.100000,-0.100000)"
fill="#000000" stroke="none">
<path d="M2112 581 c-38 -10 -77 -43 -98 -83 -23 -44 -18 -149 9 -189 29 -45
80 -69 142 -69 65 0 114 26 143 76 30 51 28 158 -4 201 -41 55 -121 81 -192
64z m119 -47 c32 -16 68 -81 69 -121 0 -38 -30 -101 -58 -119 -36 -24 -120
-24 -156 0 -79 51 -69 200 15 243 33 17 94 16 130 -3z"/>
<path d="M2104 487 c-3 -8 -4 -47 -2 -88 3 -66 5 -74 23 -74 15 0 21 8 25 35
l5 35 23 -37 c14 -23 31 -38 43 -38 23 0 24 13 3 46 -13 19 -14 28 -5 37 15
15 14 70 -1 85 -17 17 -107 16 -114 -1z m84 -39 c-7 -19 -38 -22 -38 -4 0 10
9 16 21 16 12 0 19 -5 17 -12z"/>
<path d="M608 569 c-33 -19 -16 -69 23 -69 18 0 49 25 49 40 0 13 -30 40 -43
40 -7 0 -20 -5 -29 -11z"/>
<path d="M66 537 c-16 -11 -17 -29 -14 -171 l3 -158 28 -24 c46 -39 137 -32
137 11 0 24 -17 35 -56 35 -28 0 -37 24 -32 96 3 48 4 49 38 54 61 9 46 70
-17 70 -20 0 -23 5 -23 40 0 29 -5 42 -19 50 -24 13 -24 13 -45 -3z"/>
<path d="M277 453 c-4 -3 -7 -58 -7 -120 0 -113 0 -115 29 -144 23 -23 38 -29
71 -29 23 0 51 5 62 11 14 8 23 8 31 0 30 -30 78 4 59 42 -7 12 -13 69 -14
126 -3 86 -6 106 -21 115 -12 8 -22 8 -35 0 -14 -9 -17 -29 -20 -116 -3 -102
-3 -106 -26 -110 -48 -9 -56 5 -56 103 0 50 -5 99 -10 110 -10 18 -50 26 -63
12z"/>
<path d="M613 453 c-10 -3 -13 -43 -13 -148 0 -160 -7 -189 -44 -199 -17 -4
-26 -13 -26 -26 0 -46 82 -41 119 6 19 25 21 40 21 188 0 181 -6 200 -57 179z"/>
<path d="M773 453 c-9 -3 -13 -37 -13 -120 0 -113 0 -115 29 -144 33 -32 88
-39 136 -17 19 9 28 9 37 0 18 -18 36 -14 48 9 8 14 8 24 1 33 -6 7 -12 61
-13 121 -3 90 -6 110 -21 119 -12 8 -22 8 -35 0 -14 -9 -17 -29 -20 -117 -3
-106 -3 -107 -29 -113 -20 -5 -31 -2 -45 16 -14 18 -18 40 -18 115 0 75 -3 94
-16 99 -18 7 -23 7 -41 -1z"/>
<path d="M1120 448 c-32 -17 -39 -54 -11 -63 11 -3 29 -1 40 4 11 6 26 11 35
11 21 0 46 -28 46 -51 0 -16 -5 -18 -25 -13 -36 9 -93 -4 -116 -27 -28 -28
-26 -93 6 -124 27 -28 85 -34 130 -13 19 9 28 9 37 0 17 -17 53 -15 69 4 11
14 10 18 -6 30 -16 12 -20 31 -25 109 -4 80 -8 98 -27 116 -27 27 -115 37
-153 17z m88 -164 c32 -9 30 -52 -2 -60 -36 -9 -60 -1 -64 20 -3 11 4 26 14
33 20 15 21 15 52 7z"/>
</g>
</svg>
